<?xml version="1.0" encoding="utf-8"?>
<!-- Generator: Adobe Illustrator 18.1.1, SVG Export Plug-In . SVG Version: 6.00 Build 0)  -->
<!DOCTYPE svg PUBLIC "-//W3C//DTD SVG 1.1//EN" "http://www.w3.org/Graphics/SVG/1.1/DTD/svg11.dtd">
<svg version="1.1" id="Layer_1" xmlns="http://www.w3.org/2000/svg" xmlns:xlink="http://www.w3.org/1999/xlink" x="0px" y="0px"
	 width="24px" height="24px" viewBox="0 0 24 24" enable-background="new 0 0 24 24" xml:space="preserve">
<g>
	<path fill = "#FFFFFF" d="M15.2,5.8l2.1-4.4c0,0,0.3-0.7,0-1.1S16,0,16,0H8c0,0-0.9-0.1-1.2,0.3C6.4,0.8,6.7,1.4,6.7,1.4l2.1,4.4L6,18.4l5,5.1  c0,0,0.4,0.5,1,0.5s1-0.5,1-0.5l5-5.1L15.2,5.8z M15.3,14.5l-5.3,5.3l-1.4-1.4l6.2-6.2L15.3,14.5z M14.8,2l-1.4,3h-2.7L9.2,2H14.8z   M13.9,8.4l-0.2-0.8L9.3,12l1.4-6h2.7L13.9,8.4z M8.9,13.8L14,8.7l0.5,2.3L8,17.5L8,17.8L8.9,13.8z M12,21.9l-1.8-1.8l0.4,0.4  l4.9-4.9l0.5,2.2L12,21.9z"/>
</g>
</svg>